<?xml version="1.0" standalone="no"?><svg xmlns="http://www.w3.org/2000/svg" viewBox="0 0 1440 320"><path fill="#273036" fill-opacity="1" d="M0,96L12.6,85.3C25.3,75,51,53,76,64C101.1,75,126,117,152,144C176.8,171,202,181,227,192C252.6,203,278,213,303,192C328.4,171,354,117,379,90.7C404.2,64,429,64,455,69.3C480,75,505,85,531,112C555.8,139,581,181,606,181.3C631.6,181,657,139,682,112C707.4,85,733,75,758,74.7C783.2,75,808,85,834,106.7C858.9,128,884,160,909,170.7C934.7,181,960,171,985,176C1010.5,181,1036,203,1061,197.3C1086.3,192,1112,160,1137,160C1162.1,160,1187,192,1213,208C1237.9,224,1263,224,1288,208C1313.7,192,1339,160,1364,133.3C1389.5,107,1415,85,1427,74.7L1440,64L1440,320L1427.4,320C1414.7,320,1389,320,1364,320C1338.9,320,1314,320,1288,320C1263.2,320,1238,320,1213,320C1187.4,320,1162,320,1137,320C1111.6,320,1086,320,1061,320C1035.8,320,1011,320,985,320C960,320,935,320,909,320C884.2,320,859,320,834,320C808.4,320,783,320,758,320C732.6,320,707,320,682,320C656.8,320,632,320,606,320C581.1,320,556,320,531,320C505.3,320,480,320,455,320C429.5,320,404,320,379,320C353.7,320,328,320,303,320C277.9,320,253,320,227,320C202.1,320,177,320,152,320C126.3,320,101,320,76,320C50.5,320,25,320,13,320L0,320Z"></path></svg>